<?xml version="1.0" standalone="no"?>
<!DOCTYPE svg PUBLIC "-//W3C//DTD SVG 20010904//EN"
 "http://www.w3.org/TR/2001/REC-SVG-20010904/DTD/svg10.dtd">
<svg version="1.0" xmlns="http://www.w3.org/2000/svg"
 width="500.000000pt" height="500.000000pt" viewBox="0 0 500.000000 500.000000"
 preserveAspectRatio="xMidYMid meet">
<metadata>
Created by potrace 1.14, written by Peter Selinger 2001-2017
</metadata>
<g transform="translate(0.000000,500.000000) scale(0.100000,-0.100000)"
fill="#000000" stroke="none">
<path d="M2250 4874 c-58 -8 -114 -18 -125 -23 -11 -6 -60 -18 -110 -26 -49
-9 -99 -20 -110 -25 -11 -5 -48 -17 -82 -26 -35 -9 -63 -20 -63 -24 0 -4 -25
-15 -55 -25 -30 -11 -55 -22 -55 -26 0 -4 -16 -13 -35 -20 -19 -7 -35 -17 -35
-22 0 -4 -4 -5 -10 -2 -5 3 -10 2 -10 -3 0 -5 -13 -15 -29 -22 -27 -11 -58
-31 -119 -77 -33 -25 -85 -78 -167 -169 -38 -42 -82 -91 -97 -107 -16 -16 -28
-33 -28 -36 0 -3 -19 -26 -41 -51 -22 -25 -61 -75 -85 -112 -24 -37 -48 -69
-53 -72 -5 -3 -12 -18 -15 -32 -4 -14 -16 -46 -27 -69 -17 -37 -20 -58 -16
-137 5 -97 40 -334 56 -378 5 -14 24 -73 41 -132 l31 -106 -45 -42 c-44 -41
-72 -100 -91 -197 -9 -44 4 -41 47 11 40 47 73 60 109 40 19 -10 27 -9 47 4
23 15 26 15 43 -7 21 -26 11 -61 -17 -61 -9 0 -14 -6 -11 -13 44 -114 58 -185
58 -297 0 -97 3 -119 15 -124 26 -10 28 -7 61 103 3 11 8 9 19 -7 8 -12 19
-22 25 -22 15 0 10 40 -6 46 -19 8 -19 24 0 24 19 0 19 3 -4 48 -34 68 -34 86
-1 142 26 45 36 70 27 70 -1 0 -20 -9 -42 -20 -21 -11 -43 -16 -47 -12 -5 5 3
42 17 83 15 41 29 87 32 103 4 21 8 25 15 15 5 -9 6 1 2 25 -6 36 -5 39 12 32
41 -17 134 -18 224 -3 52 9 136 19 185 22 126 9 178 20 350 75 83 27 168 52
190 55 59 9 188 36 205 42 8 3 49 7 90 9 41 2 117 9 169 15 61 8 150 10 250 5
86 -3 257 -11 380 -16 229 -10 353 -22 428 -41 l41 -11 6 -77 c3 -42 13 -130
21 -196 8 -66 15 -142 15 -168 0 -51 -26 -179 -42 -210 -18 -34 2 -31 31 4 16
19 31 32 34 29 2 -3 0 -43 -4 -89 -9 -84 -36 -161 -79 -222 -23 -31 -20 -35
10 -19 15 8 21 6 30 -10 8 -16 8 -18 -5 -14 -12 5 -13 1 -4 -25 9 -25 8 -36
-6 -57 -13 -21 -15 -39 -9 -105 6 -70 5 -79 -10 -79 -11 0 -14 -4 -9 -12 10
-17 4 -238 -7 -279 -14 -46 -5 -47 18 -2 56 111 98 280 106 428 3 55 12 123
19 150 13 48 15 50 51 53 43 4 59 28 31 48 -17 13 -17 16 5 83 14 45 20 80 15
99 -5 26 -3 30 20 36 31 8 95 47 114 69 22 27 4 38 -50 31 -57 -8 -58 -6 -33
89 15 59 15 104 0 138 -5 11 6 24 36 46 24 18 60 48 81 67 32 30 36 40 31 63
-10 40 -15 47 -25 32 -4 -7 -11 -10 -15 -6 -4 3 -1 13 5 21 9 11 8 28 -8 77
-12 34 -21 66 -21 71 0 5 -23 57 -52 116 -43 89 -51 115 -50 157 2 63 12 164
20 190 3 11 7 106 9 212 4 191 4 192 -23 250 -15 32 -32 65 -39 73 -7 8 -18
33 -25 55 -15 45 -144 180 -200 208 -19 10 -46 25 -60 32 -53 29 -176 85 -188
85 -6 0 -12 4 -12 8 0 5 -28 17 -62 27 -35 11 -65 22 -68 26 -3 3 -41 14 -85
24 -44 9 -84 21 -90 25 -5 5 -39 16 -75 25 -36 9 -70 21 -76 26 -18 15 -208
36 -336 38 l-118 2 -1 -68 c-1 -37 -1 -79 0 -93 1 -14 1 -213 1 -443 0 -381 2
-418 17 -424 9 -4 47 1 85 11 87 23 317 39 433 31 130 -10 362 -58 522 -110
148 -48 164 -56 239 -124 l49 -44 -49 26 c-27 15 -52 27 -57 27 -4 0 -54 22
-111 49 -57 27 -124 52 -148 56 -25 4 -75 13 -112 20 -86 18 -353 22 -373 5
-12 -10 -19 -10 -32 1 -13 11 -17 11 -21 1 -3 -10 -7 -10 -18 -1 -9 7 -36 9
-76 6 -345 -30 -413 -45 -586 -128 -67 -32 -126 -59 -131 -59 -4 0 -16 9 -25
19 -13 14 -23 17 -35 11 -25 -14 -109 -50 -116 -50 -4 0 -68 -24 -144 -54 -75
-30 -174 -69 -221 -86 -272 -99 -331 -129 -369 -186 -28 -43 -30 -44 -41 -25
-15 29 -25 26 -63 -12 -32 -33 -90 -77 -101 -77 -3 0 -6 9 -6 19 0 11 -5 21
-12 23 -23 8 400 248 436 248 22 0 135 38 174 59 126 68 370 166 487 197 344
91 359 97 375 139 7 17 15 662 11 798 -1 11 -16 25 -41 36 -30 13 -37 20 -28
29 9 9 8 19 -4 40 -14 23 -14 29 -2 40 14 12 15 12 18 -7 2 -18 13 -21 26 -6
15 18 5 49 -14 42 -10 -4 -12 0 -9 14 3 10 9 19 14 19 5 0 9 7 9 15 0 13 -17
15 -102 13 -57 -1 -150 -7 -208 -14z m255 -43 c3 -5 1 -12 -5 -16 -5 -3 -10 1
-10 9 0 18 6 21 15 7z m5 -85 c0 -3 -4 -8 -10 -11 -5 -3 -10 -1 -10 4 0 6 5
11 10 11 6 0 10 -2 10 -4z m1258 -372 c6 3 17 -5 26 -19 15 -23 15 -26 1 -31
-8 -3 -15 -12 -15 -20 0 -19 -6 -18 -31 7 -15 15 -18 24 -9 34 8 9 8 15 0 20
-5 3 -10 11 -10 17 0 7 5 6 15 -2 8 -6 18 -9 23 -6z m-1978 -694 c0 -5 -4 -10
-10 -10 -5 0 -10 5 -10 10 0 6 5 10 10 10 6 0 10 -4 10 -10z m410 -51 c0 -6
-4 -7 -10 -4 -5 3 -10 11 -10 16 0 6 5 7 10 4 6 -3 10 -11 10 -16z"/>
<path d="M2540 4721 c0 -6 5 -13 10 -16 6 -3 10 1 10 9 0 9 -4 16 -10 16 -5 0
-10 -4 -10 -9z"/>
<path d="M3165 3232 c-98 -34 -181 -96 -260 -195 -33 -41 -36 -50 -24 -62 12
-12 24 -9 84 20 89 44 211 85 252 85 17 0 35 5 38 10 4 7 11 8 18 2 7 -6 23
-10 37 -10 51 1 153 -58 228 -132 58 -57 76 -69 87 -60 11 9 8 19 -22 58 -19
26 -39 49 -44 52 -5 3 -10 17 -12 30 -3 16 -10 24 -20 22 -11 -2 -14 3 -10 17
3 13 -2 24 -16 33 -12 7 -21 17 -21 23 -1 13 -76 68 -136 100 -56 30 -108 32
-179 7z"/>
<path d="M2179 3216 c-62 -21 -211 -105 -225 -127 -3 -6 -43 -34 -87 -63 -95
-61 -138 -102 -130 -122 3 -8 8 -14 12 -14 14 1 52 27 92 65 24 22 54 40 68
41 14 1 34 2 44 3 9 0 27 12 39 26 12 14 26 25 32 25 6 0 28 9 49 20 151 81
268 90 390 31 38 -18 71 -30 74 -27 12 12 -44 70 -112 116 -67 45 -79 50 -127
49 -29 0 -83 -11 -119 -23z"/>
<path d="M2240 3090 c-13 -8 -12 -10 3 -10 9 0 17 5 17 10 0 12 -1 12 -20 0z"/>
<path d="M2409 3045 c44 -25 67 -33 74 -26 11 11 -51 44 -108 56 -21 5 -11 -4
34 -30z"/>
<path d="M2192 3019 c-45 -10 -99 -29 -120 -42 -140 -89 -172 -110 -168 -114
2 -3 42 13 88 35 46 21 128 54 184 72 137 45 160 40 245 -57 23 -25 44 -67 30
-59 -14 9 -14 3 1 -29 13 -29 34 -33 36 -7 1 29 -59 139 -98 177 -47 46 -85
50 -198 24z"/>
<path d="M1010 2951 c10 -7 11 -11 3 -11 -7 0 -13 -10 -13 -22 0 -21 1 -21 13
-3 10 12 16 14 21 7 4 -7 3 -12 -2 -12 -6 0 -13 -8 -16 -17 -6 -14 -3 -14 15
3 19 16 21 17 16 2 -4 -12 -2 -15 9 -11 12 4 10 11 -9 36 -13 17 -30 33 -38
35 -11 3 -11 1 1 -7z"/>
<path d="M960 2946 c0 -2 7 -7 16 -10 8 -3 12 -2 9 4 -6 10 -25 14 -25 6z"/>
<path d="M3239 2936 c-59 -21 -197 -112 -186 -123 2 -2 38 14 78 36 92 49 190
70 248 52 47 -14 98 -68 136 -147 25 -52 45 -69 45 -40 0 18 -60 121 -95 164
-15 17 -33 32 -41 32 -8 0 -14 4 -14 9 0 9 -86 31 -118 31 -9 -1 -33 -7 -53
-14z"/>
<path d="M930 2905 c-7 -9 -8 -15 -2 -15 5 0 12 7 16 15 3 8 4 15 2 15 -2 0
-9 -7 -16 -15z"/>
<path d="M970 2900 c0 -5 5 -10 11 -10 5 0 7 5 4 10 -3 6 -8 10 -11 10 -2 0
-4 -4 -4 -10z"/>
<path d="M947 2861 c-3 -13 -1 -18 9 -14 7 2 10 11 7 19 -7 19 -10 18 -16 -5z"/>
<path d="M1050 2860 c-8 -5 -11 -12 -8 -16 4 -3 14 1 23 10 18 17 9 21 -15 6z"/>
<path d="M1040 2810 c0 -5 5 -10 10 -10 6 0 10 5 10 10 0 6 -4 10 -10 10 -5 0
-10 -4 -10 -10z"/>
<path d="M1964 2778 c-37 -43 -56 -90 -61 -148 -7 -77 3 -127 27 -135 53 -17
110 84 116 202 2 46 -1 82 -8 90 -16 20 -52 15 -74 -9z m32 -75 c-10 -10 -19
5 -10 18 6 11 8 11 12 0 2 -7 1 -15 -2 -18z"/>
<path d="M910 2771 c0 -5 7 -14 15 -21 16 -14 18 -10 9 14 -6 17 -24 22 -24 7z"/>
<path d="M891 2754 c0 -11 3 -14 6 -6 3 7 2 16 -1 19 -3 4 -6 -2 -5 -13z"/>
<path d="M3121 2751 c-42 -42 -61 -215 -28 -249 42 -41 120 59 119 153 -1 71
-7 90 -38 103 -32 15 -31 15 -53 -7z"/>
<path d="M982 2738 c-12 -15 -12 -36 1 -68 19 -48 67 -199 67 -210 0 -8 6 -21
14 -29 7 -9 16 -32 19 -52 4 -31 1 -41 -19 -60 -31 -29 -28 -63 6 -67 34 -5
49 -19 67 -64 8 -21 19 -38 23 -38 18 0 -4 -41 -46 -86 -34 -38 -41 -51 -32
-62 7 -8 21 -11 35 -7 22 5 23 3 23 -54 0 -61 16 -158 30 -176 4 -5 22 -37 40
-70 18 -33 42 -73 52 -90 10 -16 21 -38 24 -47 8 -22 34 -24 34 -3 0 8 -7 15
-15 15 -9 0 -15 9 -15 24 0 14 -7 31 -15 39 -12 13 -12 26 -1 96 10 62 10 81
0 85 -6 2 -16 0 -22 -6 -7 -7 -6 10 2 46 8 31 10 59 5 62 -5 3 -6 36 -3 75 6
64 5 69 -13 69 -10 0 -24 -5 -31 -12 -16 -16 -17 5 -2 33 9 16 5 25 -21 52
l-32 31 6 148 c7 150 -5 203 -18 83 -3 -36 -10 -65 -15 -65 -5 0 -15 31 -24
68 -14 62 -50 170 -78 232 -24 54 -27 66 -30 94 -3 25 -5 27 -16 14z"/>
<path d="M918 2704 c3 -16 -1 -26 -12 -30 -21 -8 -21 -54 -1 -54 11 0 14 7 10
23 -4 16 0 28 11 38 15 12 16 12 10 -9 -4 -12 -3 -22 1 -22 5 0 9 17 9 38 -1
27 -5 38 -17 39 -12 1 -15 -5 -11 -23z"/>
<path d="M2706 2664 c-8 -21 -8 -34 2 -34 4 0 8 11 8 25 2 29 -1 32 -10 9z"/>
<path d="M934 2613 c3 -6 -2 -16 -11 -22 -10 -6 -13 -10 -8 -11 6 0 17 5 25
10 13 8 13 11 1 22 -9 8 -12 9 -7 1z"/>
<path d="M2680 2599 c-6 -11 -18 -41 -26 -67 -23 -77 -11 -119 63 -219 36 -48
85 -120 109 -160 44 -69 45 -73 34 -114 -14 -51 -85 -205 -99 -213 -5 -4 -15
-23 -22 -44 -6 -20 -20 -49 -30 -64 -11 -14 -19 -33 -19 -41 0 -9 -8 -18 -17
-20 -17 -4 -17 -5 0 -6 10 0 29 11 44 27 14 15 44 47 68 72 70 75 165 228 165
266 0 20 -137 280 -166 314 -21 26 -54 123 -54 162 0 20 -6 38 -12 41 -10 3
-10 9 -1 25 7 12 10 28 7 36 -9 24 -33 27 -44 5z"/>
<path d="M3501 2485 c-29 -19 -55 -35 -57 -35 -10 0 -94 -74 -94 -82 0 -20 80
33 172 115 52 46 47 47 -21 2z"/>
<path d="M3422 2503 c-7 -3 -39 -30 -70 -60 -61 -60 -56 -60 23 -3 71 52 93
82 47 63z"/>
<path d="M3540 2445 c-18 -19 -20 -25 -8 -25 9 0 23 11 32 25 9 14 13 25 8 25
-5 0 -19 -11 -32 -25z"/>
<path d="M1722 2451 c2 -7 7 -12 11 -12 12 1 9 15 -3 20 -7 2 -11 -2 -8 -8z"/>
<path d="M1650 2414 c-17 -19 -14 -21 50 -28 39 -5 51 -4 40 3 -8 6 -23 11
-32 11 -9 0 -23 7 -31 15 -13 13 -16 13 -27 -1z"/>
<path d="M3471 2395 c-14 -14 -22 -27 -19 -31 10 -9 69 36 63 47 -9 13 -17 10
-44 -16z"/>
<path d="M1592 2373 c-25 -9 0 -23 41 -23 35 1 39 3 24 11 -10 6 -21 8 -24 5
-4 -3 -11 -2 -17 3 -6 4 -17 6 -24 4z"/>
<path d="M3560 2359 c0 -5 5 -7 10 -4 6 3 10 8 10 11 0 2 -4 4 -10 4 -5 0 -10
-5 -10 -11z"/>
<path d="M2632 1813 c-15 -48 -8 -55 8 -8 7 20 10 38 8 41 -3 2 -10 -13 -16
-33z"/>
<path d="M2555 1729 c-8 -25 11 -47 43 -54 29 -5 28 1 -7 41 -28 31 -30 32
-36 13z"/>
<path d="M3060 1699 c-25 -5 -52 -10 -60 -10 -32 -3 -56 -39 -25 -39 31 0 2
-29 -36 -35 -21 -4 -39 -11 -39 -16 0 -5 6 -8 13 -6 6 1 11 -6 9 -15 -4 -25
14 -23 21 2 3 11 12 20 21 20 20 0 20 -7 1 -26 -8 -9 -15 -24 -15 -34 0 -13 5
-17 15 -14 18 7 19 21 3 27 -7 3 2 6 20 6 28 1 35 6 47 35 9 22 25 37 43 44
16 5 29 16 29 23 0 8 4 22 8 32 4 9 3 16 -1 16 -5 -1 -29 -5 -54 -10z"/>
<path d="M3338 1666 c-10 -7 -15 -16 -11 -20 4 -4 0 -4 -9 -1 -18 7 -247 -97
-260 -118 -12 -18 -10 -27 7 -27 8 0 15 5 15 11 0 5 5 7 10 4 21 -13 8 -31
-44 -63 -89 -53 -205 -76 -386 -77 -307 0 -442 22 -487 82 -25 32 -99 80 -110
70 -2 -3 12 -18 32 -34 20 -15 48 -38 62 -50 34 -28 124 -72 160 -78 15 -2 60
-11 98 -19 91 -20 251 -20 370 -1 167 27 297 85 400 178 67 59 116 91 158 101
18 4 27 13 27 26 0 25 -11 31 -32 16z"/>
<path d="M2698 1647 c-26 -19 -29 -20 -46 -4 -33 30 -47 18 -16 -13 16 -16 38
-30 50 -30 18 0 64 37 64 52 0 16 -28 13 -52 -5z"/>
<path d="M2203 1610 c4 -16 2 -32 -3 -35 -22 -14 -9 -35 20 -35 22 0 33 6 39
22 5 15 10 18 15 9 4 -6 3 -18 -3 -25 -8 -10 -7 -17 4 -26 12 -10 27 -10 75 0
48 10 63 10 75 0 8 -7 25 -10 39 -6 16 4 26 1 30 -9 4 -10 14 -13 34 -9 21 4
35 1 48 -13 15 -15 31 -19 69 -17 28 1 67 3 89 3 21 0 49 7 62 16 13 8 32 15
42 15 10 0 24 6 31 13 6 6 23 12 36 12 29 0 34 19 6 23 -13 2 -18 8 -14 18 3
8 2 14 -3 12 -5 -1 -19 3 -31 10 -19 10 -23 9 -28 -8 -7 -22 -20 -26 -30 -10
-11 18 -70 11 -88 -10 -15 -17 -20 -18 -38 -8 -17 10 -23 10 -26 1 -6 -15 -39
-17 -48 -3 -3 6 -15 10 -26 10 -10 0 -19 7 -19 15 0 8 -9 15 -19 15 -11 0 -36
9 -55 21 -21 12 -40 17 -48 12 -22 -13 -88 -10 -88 6 0 8 -6 11 -16 7 -9 -3
-18 -6 -20 -6 -2 0 -4 -7 -4 -15 0 -8 -4 -15 -10 -15 -5 0 -10 7 -10 16 0 11
-6 13 -19 9 -11 -3 -22 -1 -26 5 -3 5 -15 10 -27 10 -17 0 -20 -4 -15 -30z
m52 -20 c-3 -5 -12 -10 -18 -10 -7 0 -6 4 3 10 19 12 23 12 15 0z m55 -29 c0
-6 -4 -13 -10 -16 -5 -3 -10 1 -10 9 0 9 5 16 10 16 6 0 10 -4 10 -9z m480
-41 c12 -8 11 -10 -7 -10 -13 0 -23 5 -23 10 0 13 11 13 30 0z m-135 -20 c-3
-5 -11 -10 -16 -10 -6 0 -7 5 -4 10 3 6 11 10 16 10 6 0 7 -4 4 -10z"/>
<path d="M1932 1590 c2 -8 25 -21 50 -29 26 -9 50 -19 54 -23 4 -4 12 -4 18 1
6 5 22 11 36 13 24 4 23 5 -12 21 -51 23 -152 35 -146 17z"/>
<path d="M1346 1445 c4 -8 8 -15 10 -15 2 0 4 7 4 15 0 8 -4 15 -10 15 -5 0
-7 -7 -4 -15z"/>
<path d="M1454 1345 c-4 -8 -3 -22 0 -31 3 -8 2 -12 -4 -9 -13 8 -12 5 1 -34
7 -20 16 -30 25 -27 8 3 11 0 8 -9 -3 -8 10 -43 30 -78 34 -61 36 -68 36 -161
l0 -97 -35 5 c-34 6 -34 5 -24 -21 5 -14 29 -49 52 -77 52 -63 44 -53 127
-163 39 -50 70 -96 70 -101 0 -5 13 -27 28 -48 16 -21 41 -64 58 -94 16 -30
32 -56 37 -58 4 -2 7 -10 7 -18 0 -8 4 -14 8 -14 5 0 18 -21 30 -48 24 -53 93
-132 114 -132 8 0 40 -29 72 -65 l57 -65 116 0 116 0 -21 23 c-27 29 -27 32 0
34 15 2 18 -1 10 -6 -17 -10 14 -37 51 -43 31 -6 106 43 191 124 25 25 47 40
49 35 3 -11 87 41 87 53 0 4 9 11 20 16 11 5 91 71 178 147 l159 139 7 56 c9
85 17 125 28 145 6 13 6 23 -3 33 -10 12 -6 21 19 47 18 18 32 37 32 41 0 5
-11 -3 -26 -19 -27 -29 -42 -29 -26 2 26 47 40 88 35 97 -9 14 -65 -53 -59
-70 3 -8 2 -13 -3 -10 -4 3 -23 -15 -40 -39 -49 -69 -51 -60 -6 29 25 49 31
76 19 76 -12 0 -33 -34 -34 -52 0 -10 -6 -18 -14 -18 -8 0 -24 -15 -35 -33
-24 -39 -61 -75 -61 -59 0 6 11 28 25 48 14 21 24 43 21 50 -3 7 0 15 7 17 8
3 9 8 2 16 -8 8 -27 -9 -68 -59 -31 -39 -62 -70 -68 -70 -7 0 -5 9 5 23 21 28
46 81 40 86 -2 2 -29 -21 -61 -52 -31 -32 -59 -55 -61 -52 -3 3 2 13 11 22 8
10 19 30 22 46 6 22 4 26 -8 21 -9 -3 -13 -12 -10 -20 7 -20 -7 -18 -23 4 -13
16 -14 16 -20 -5 -3 -13 -10 -23 -15 -23 -4 0 -7 -12 -6 -27 2 -22 -3 -28 -28
-33 -32 -6 -85 13 -66 24 6 4 11 16 11 26 0 10 6 20 13 23 6 3 1 4 -12 4 -13
-1 -41 -18 -62 -39 -49 -48 -58 -49 -23 -3 15 20 24 38 20 42 -3 3 -6 2 -6 -3
0 -5 -14 -18 -30 -28 -17 -9 -28 -21 -25 -26 3 -5 1 -11 -5 -15 -6 -4 -10 6
-10 24 0 38 -12 39 -48 6 -31 -29 -53 -34 -29 -7 10 10 17 23 17 28 0 16 -70
7 -92 -13 -21 -18 -21 -18 -14 2 4 11 8 22 9 25 1 3 -2 7 -8 8 -5 2 -17 8 -26
13 -16 8 -45 -11 -34 -23 3 -3 -6 -10 -20 -16 -30 -14 -31 -7 -5 35 26 44 11
49 -35 11 -36 -31 -37 -31 -30 -7 4 13 11 28 16 34 5 5 9 15 9 22 0 16 -37 17
-42 2 -3 -8 -10 -8 -26 2 -19 12 -24 11 -45 -9 -28 -27 -40 -28 -33 -4 8 23
-9 50 -17 28 -5 -12 -12 -14 -31 -7 -13 6 -27 7 -32 3 -4 -4 -4 1 -1 10 3 10
2 20 -3 23 -6 4 -10 28 -10 56 0 30 -4 49 -11 49 -17 0 -38 -32 -39 -58 0 -15
-5 -22 -12 -19 -9 3 -12 23 -11 60 2 57 -14 80 -37 52 -6 -7 -19 -11 -29 -8
-18 5 -26 17 -50 77 -10 23 -16 27 -38 23 -20 -4 -31 1 -46 19 -10 13 -27 24
-37 24 -11 0 -20 10 -24 25 -9 36 -24 31 -32 -12 l-7 -38 -9 33 c-9 32 -21 41
-33 22 -10 -15 -28 -12 -22 4 3 8 -1 20 -9 27 -8 6 -24 29 -36 50 -23 42 -35
48 -44 24z m416 -326 c0 -5 -4 -9 -10 -9 -5 0 -10 7 -10 16 0 8 5 12 10 9 6
-3 10 -10 10 -16z m309 -777 c1 -18 -14 -7 -41 31 l-23 32 32 -25 c18 -14 32
-31 32 -38z"/>
<path d="M3256 964 c-3 -9 -6 -24 -6 -35 0 -14 -6 -18 -22 -16 -19 2 -23 -2
-20 -22 1 -14 5 -27 8 -30 9 -9 54 52 52 69 -1 8 1 20 5 27 4 6 3 14 -2 17 -5
3 -12 -1 -15 -10z"/>
<path d="M1349 863 c-14 -16 -59 -46 -101 -67 l-77 -39 26 -50 c33 -66 219
-364 370 -594 l74 -113 149 0 c83 0 150 2 150 5 0 6 -107 193 -130 225 -9 14
-20 32 -23 40 -4 8 -17 31 -30 51 -12 20 -44 73 -72 118 -51 83 -121 192 -230
359 -33 51 -65 92 -71 92 -6 0 -22 -12 -35 -27z m58 -215 c-3 -8 -6 -5 -6 6
-1 11 2 17 5 13 3 -3 4 -12 1 -19z m-117 2 c0 -5 -2 -10 -4 -10 -3 0 -8 5 -11
10 -3 6 -1 10 4 10 6 0 11 -4 11 -10z m30 -58 c0 -14 -15 -8 -15 6 0 4 -4 14
-10 22 -8 13 -7 13 8 1 9 -7 17 -20 17 -29z m48 -17 c-3 -3 -9 2 -12 12 -6 14
-5 15 5 6 7 -7 10 -15 7 -18z m131 -54 c-1 -13 -2 -13 -6 2 -2 9 -11 17 -19
17 -8 0 -14 7 -14 17 0 14 2 14 20 -2 11 -10 19 -25 19 -34z m-126 -5 c29 -46
32 -56 19 -56 -5 0 -21 23 -36 50 -33 61 -21 66 17 6z m42 -6 c3 -5 1 -10 -4
-10 -6 0 -11 5 -11 10 0 6 2 10 4 10 3 0 8 -4 11 -10z m95 -20 c0 -5 -2 -10
-4 -10 -3 0 -8 5 -11 10 -3 6 -1 10 4 10 6 0 11 -4 11 -10z m40 -44 c0 -11
-19 -15 -25 -6 -3 5 1 10 9 10 9 0 16 -2 16 -4z m-90 -79 c0 -12 0 -11 -24 28
l-17 30 20 -24 c12 -13 21 -28 21 -34z m130 11 c0 -14 -19 1 -31 25 -12 22
-12 22 10 3 11 -11 21 -23 21 -28z"/>
<path d="M3177 710 c3 -11 9 -20 14 -20 5 0 6 -7 3 -15 -4 -8 -1 -15 5 -15 6
0 11 -4 11 -10 0 -5 -6 -7 -13 -4 -10 3 -14 -6 -15 -33 -1 -21 -4 -55 -8 -75
-5 -31 -3 -38 10 -38 9 0 16 8 16 18 0 10 9 28 21 41 12 13 19 30 16 42 -3 10
-1 19 4 19 16 0 10 28 -7 34 -11 4 -15 14 -11 31 3 18 -1 29 -14 35 -27 15
-38 12 -32 -10z"/>
<path d="M3343 559 c0 -61 -4 -121 -7 -134 -7 -28 -102 -145 -117 -145 -6 0
-7 6 -3 13 4 6 -8 -1 -27 -18 -19 -16 -35 -33 -37 -37 -2 -5 -8 -8 -13 -8 -14
0 -10 26 6 40 9 7 13 15 10 18 -4 4 -148 -109 -221 -175 -17 -15 -52 -47 -79
-70 l-48 -43 249 0 c283 0 245 -12 309 95 21 35 37 51 55 53 35 4 70 29 70 51
0 10 9 53 20 97 13 50 22 125 25 207 l5 127 -26 12 c-28 13 -44 1 -44 -34 0
-10 -5 -18 -11 -18 -6 0 -9 -9 -6 -20 3 -13 0 -20 -8 -20 -10 0 -13 15 -12 55
2 60 -2 65 -56 65 l-32 0 -2 -111z m117 -35 c0 -8 -4 -12 -10 -9 -5 3 -10 10
-10 16 0 5 5 9 10 9 6 0 10 -7 10 -16z m-270 -279 c-7 -8 -17 -15 -23 -15 -6
0 -2 8 9 19 22 21 33 19 14 -4z m-76 -30 c-4 -8 -10 -15 -15 -15 -5 0 -27 -16
-49 -36 -22 -20 -44 -34 -48 -30 -4 4 2 12 12 18 11 6 36 26 55 44 39 36 54
42 45 19z"/>
<path d="M980 636 c-6 -6 -10 -16 -10 -24 0 -11 -3 -12 -13 -3 -10 8 -26 3
-65 -22 -28 -17 -98 -59 -154 -91 -158 -91 -388 -241 -427 -277 -11 -11 -22
-19 -25 -19 -11 0 -106 -64 -106 -71 0 -16 81 -68 137 -89 53 -20 56 -20 69
-3 13 17 13 17 14 -4 0 -19 7 -22 73 -28 39 -3 150 -5 246 -3 l174 3 -74 55
c-40 30 -86 64 -101 75 -91 68 -218 168 -218 172 0 3 17 2 38 -2 73 -15 187
-33 190 -30 2 2 5 11 7 22 2 10 4 19 4 21 1 1 11 -7 23 -18 18 -16 20 -23 9
-29 -13 -8 -3 -11 76 -25 13 -2 25 0 29 5 6 11 35 12 33 2 -3 -20 2 -24 16
-13 12 10 15 9 15 -7 0 -22 32 -42 75 -47 17 -2 33 -4 37 -5 12 -2 4 -41 -9
-41 -17 0 -18 -111 -1 -128 7 -7 29 -12 49 -12 30 0 39 5 45 23 4 12 7 29 5
37 -4 20 17 0 33 -32 10 -20 19 -23 85 -26 87 -3 105 7 96 54 -3 18 -12 45
-19 60 -22 46 -28 72 -16 79 16 10 12 45 -6 52 -9 3 -14 13 -11 23 9 35 -42
180 -63 180 -5 0 -10 10 -12 21 -4 31 -35 49 -49 29 -7 -11 -8 -8 -3 13 5 20
2 27 -9 27 -10 0 -13 6 -10 21 5 18 3 20 -16 14 -15 -4 -21 -2 -21 8 0 8 -6
20 -14 26 -11 10 -15 8 -19 -6 -4 -17 -5 -16 -12 2 -17 40 -69 57 -95 31z
m-44 -68 c17 -27 13 -56 -9 -62 -22 -6 -37 0 -37 14 0 5 7 7 17 3 14 -5 15 -1
10 25 -6 32 5 43 19 20z m140 -25 c-7 -7 -26 7 -26 19 0 6 6 6 15 -2 9 -7 13
-15 11 -17z m-206 -23 c0 -11 5 -20 11 -20 6 0 9 -6 6 -12 -2 -7 -14 -12 -25
-10 -12 2 -22 -2 -22 -8 0 -6 -5 -8 -10 -5 -8 5 -7 11 1 21 9 11 9 17 0 28
-10 11 -8 15 6 19 31 8 33 7 33 -13z m125 -5 c0 -10 -7 -21 -15 -23 -13 -5
-13 -3 -1 12 12 14 12 16 -3 10 -16 -6 -22 6 -9 20 12 11 28 0 28 -19z m139
-41 c5 -14 4 -15 -9 -4 -17 14 -19 20 -6 20 5 0 12 -7 15 -16z m73 -10 c-9 -9
-28 6 -21 18 4 6 10 6 17 -1 6 -6 8 -13 4 -17z m-432 -24 c3 -5 2 -10 -4 -10
-5 0 -13 5 -16 10 -3 6 -2 10 4 10 5 0 13 -4 16 -10z m323 -14 c-10 -7 -18
-18 -18 -25 0 -6 -4 -11 -10 -11 -5 0 -10 5 -10 10 0 17 23 39 40 39 12 0 12
-2 -2 -13z m-185 -2 c12 -12 -6 -34 -23 -29 -10 3 -21 1 -25 -5 -3 -5 -11 -10
-17 -10 -14 0 33 47 48 49 6 1 13 -2 17 -5z m25 -60 c9 -9 17 -35 18 -58 1
-22 0 -33 -3 -23 -5 19 -14 22 -29 7 -6 -6 -9 9 -9 40 0 28 1 50 3 50 2 0 11
-7 20 -16z m52 -28 c0 -3 -4 -8 -10 -11 -5 -3 -10 -1 -10 4 0 6 5 11 10 11 6
0 10 -2 10 -4z m-130 -55 c0 -6 -4 -13 -10 -16 -5 -3 -10 1 -10 9 0 9 5 16 10
16 6 0 10 -4 10 -9z m446 -78 c-4 -4 -11 -1 -16 7 -16 25 -11 35 7 17 9 -9 13
-20 9 -24z m-196 -47 c0 -3 -4 -8 -10 -11 -5 -3 -10 -1 -10 4 0 6 5 11 10 11
6 0 10 -2 10 -4z"/>
<path d="M3560 612 c0 -5 7 -22 15 -39 10 -20 13 -51 11 -96 -3 -54 -1 -65 9
-57 8 7 16 7 19 2 8 -13 -14 -73 -24 -67 -5 3 -11 1 -15 -5 -3 -5 -2 -10 3
-10 10 0 11 -48 1 -65 -8 -13 -3 -202 6 -243 7 -35 14 -39 34 -20 11 10 14 10
18 1 3 -7 9 -13 15 -13 7 0 7 4 1 13 -5 6 -6 26 -2 42 3 17 7 24 8 18 0 -7 10
-13 21 -13 11 0 20 -4 20 -10 0 -12 37 -50 49 -50 5 0 7 9 4 20 -7 25 5 26 23
2 9 -11 13 -13 14 -4 0 7 -7 20 -15 29 -13 12 -18 13 -31 3 -8 -7 -17 -10 -21
-7 -8 9 17 37 33 37 7 0 28 9 47 20 28 16 38 32 52 78 25 84 25 86 16 101 -6
9 -1 29 15 57 24 42 32 94 15 94 -4 0 -6 12 -3 26 3 18 1 25 -6 20 -6 -4 -8 1
-5 13 4 14 -3 24 -24 34 -56 29 -160 66 -226 81 -80 19 -77 18 -77 8z m280
-157 c0 -8 5 -15 10 -15 6 0 10 -4 10 -10 0 -5 -7 -10 -15 -10 -8 0 -15 4 -15
9 0 5 -3 16 -6 25 -3 9 -1 16 5 16 6 0 11 -7 11 -15z m-190 -35 c0 -5 -4 -10
-10 -10 -5 0 -10 5 -10 10 0 6 5 10 10 10 6 0 10 -4 10 -10z m190 -41 c0 -5
-7 -9 -15 -9 -15 0 -20 12 -9 23 8 8 24 -1 24 -14z m-65 -19 c3 -5 12 -7 19
-4 7 3 16 -1 19 -9 6 -16 -35 -29 -60 -20 -16 6 -17 23 -2 23 5 0 7 5 4 10 -3
6 -2 10 4 10 5 0 12 -4 16 -10z m-141 -12 c-5 -7 -1 -9 13 -6 17 5 22 0 26
-26 2 -17 2 -37 0 -43 -7 -19 -33 -16 -33 3 0 23 -24 11 -28 -13 -2 -14 4 -22
17 -26 12 -3 21 -11 21 -19 -1 -18 -28 -53 -36 -45 -4 4 -1 14 7 23 12 14 10
19 -11 36 -23 18 -23 20 -7 47 12 20 13 31 5 39 -14 14 -3 42 17 42 10 0 13
-5 9 -12z m96 -27 c7 -11 17 -18 22 -15 4 3 13 2 20 -2 8 -5 7 -10 -4 -18 -22
-16 -28 -54 -12 -70 8 -8 14 -24 14 -37 0 -18 -2 -19 -15 -9 -12 10 -15 10
-15 -3 0 -8 -7 -17 -15 -21 -8 -3 -15 -14 -15 -24 0 -24 -25 -48 -35 -32 -3 5
1 10 9 10 21 0 20 8 -4 48 -24 39 -26 62 -4 62 8 0 12 5 9 10 -4 6 -2 16 3 23
5 7 8 28 7 47 -4 54 9 65 35 31z m94 -57 c3 -8 2 -12 -4 -9 -6 3 -10 10 -10
16 0 14 7 11 14 -7z m-34 -4 c0 -5 -2 -10 -4 -10 -3 0 -8 5 -11 10 -3 6 -1 10
4 10 6 0 11 -4 11 -10z m10 -40 c0 -5 -4 -10 -10 -10 -5 0 -10 5 -10 10 0 6 5
10 10 10 6 0 10 -4 10 -10z m-150 -70 c0 -5 -2 -10 -4 -10 -3 0 -8 5 -11 10
-3 6 -1 10 4 10 6 0 11 -4 11 -10z m96 -56 c-3 -8 -10 -13 -16 -9 -6 3 -5 16
3 32 9 21 13 23 15 9 2 -9 1 -24 -2 -32z"/>
<path d="M3256 488 c-3 -7 -14 -39 -25 -70 -11 -32 -17 -58 -12 -58 13 0 61
88 61 111 0 22 -19 35 -24 17z"/>
<path d="M4109 404 c22 -16 23 -22 18 -83 -4 -51 -16 -88 -52 -161 -25 -52
-55 -110 -66 -127 l-21 -33 259 0 c142 0 287 5 323 11 70 11 172 48 176 64 4
13 -75 73 -151 116 -33 18 -73 43 -90 55 -40 29 -166 92 -235 117 -171 61
-202 69 -161 41z"/>
<path d="M2999 298 c-140 -123 -138 -121 -130 -159 l7 -33 17 24 c10 14 13 26
7 28 -21 7 -9 22 13 17 19 -5 31 3 63 38 55 61 74 86 74 95 0 5 11 18 25 30
21 19 33 42 21 42 -2 0 -45 -37 -97 -82z"/>
<path d="M2773 107 c-4 -6 -20 -18 -35 -26 -15 -8 -37 -22 -47 -33 -11 -10
-24 -18 -29 -18 -5 0 -15 -7 -23 -16 -11 -13 -7 -15 38 -12 28 2 50 5 48 7 -6
5 22 31 34 31 15 0 14 17 -1 23 -7 3 -2 6 12 6 35 2 52 15 44 34 -7 20 -30 22
-41 4z m-38 -57 c-3 -5 -12 -10 -18 -10 -7 0 -6 4 3 10 19 12 23 12 15 0z"/>
<path d="M3797 84 c-11 -11 -8 -26 3 -19 6 3 10 1 10 -6 0 -7 3 -10 6 -6 3 3
2 13 -3 22 -5 8 -12 12 -16 9z"/>
<path d="M3660 43 c1 -16 29 -45 40 -41 6 2 5 11 -5 26 -16 21 -35 30 -35 15z"/>
</g>
</svg>
